<svg width="21" height="26" viewBox="0 0 21 26" fill="none" xmlns="http://www.w3.org/2000/svg">
<path d="M2.58333 2.58333H0V23.25H2.58333V2.58333ZM15.5 0H2.58333V2.58333H15.5V0ZM20.6667 5.16667H18.0833V23.25H20.6667V5.16667ZM18.0833 23.25H2.58333V25.8333H18.0833V23.25ZM15.5 2.58333H18.0833V5.16667H15.5V2.58333ZM10.3333 2.58333H12.9167V10.3333H10.3333V2.58333Z" fill="black"/>
<path d="M10.3334 7.75H18.0834V10.3333H10.3334V7.75ZM5.16675 18.0833H15.5001V20.6667H5.16675V18.0833ZM5.16675 12.9167H15.5001V15.5H5.16675V12.9167ZM5.16675 7.75H7.75008V10.3333H5.16675V7.75Z" fill="black"/>
</svg>